<svg width="70" height="40" viewBox="0 0 70 40" fill="none" xmlns="http://www.w3.org/2000/svg">
<g clip-path="url(#clip0)">
<path d="M18.0164 0C26.7951 0 32.7049 5.68116 32.7049 14.5797C32.7049 23.3913 26.4508 29.0725 17.2418 29.0725H11.5902V40H0V0H18.0164Z" fill="#1D5EB2"/>
<path d="M16.4385 11.6232C18.0164 11.6232 19.3074 12.9276 19.3074 14.5218C19.3074 16.116 18.0164 17.4203 16.4385 17.4203C14.8607 17.4203 13.5697 16.116 13.5697 14.5218C13.5697 12.9276 14.8607 11.6232 16.4385 11.6232ZM16.4385 10.174C14.0574 10.174 12.1353 12.116 12.1353 14.5218C12.1353 16.9276 14.0574 18.8696 16.4385 18.8696C18.8197 18.8696 20.7418 16.9276 20.7418 14.5218C20.7418 12.116 18.8197 10.174 16.4385 10.174Z" fill="#FFDD21"/>
<path d="M55.3115 0C64.0902 0 70 5.68116 70 14.5797C70 23.3913 63.7459 29.0725 54.5369 29.0725H48.914V40H37.2951V0H55.3115Z" fill="#1D5EB2"/>
<path d="M58.0082 11.1015L57.1189 10.174L53.705 13.5942L50.3197 10.174L49.4017 11.1015L52.8156 14.5218L49.4017 17.9421L50.3197 18.8696L53.705 15.4493L57.1189 18.8696L58.0082 17.9421L54.623 14.5218L58.0082 11.1015Z" fill="#FFDD21"/>
</g>
<defs>
<clipPath id="clip0">
<rect width="70" height="40" fill="white"/>
</clipPath>
</defs>
</svg>
