<svg width="16" height="16" viewBox="0 0 16 16" fill="none" xmlns="http://www.w3.org/2000/svg">
<path d="M15.8603 15.184L11.9721 11.2958C13.0151 10.0967 13.6466 8.53215 13.6466 6.82217C13.6466 3.05809 10.5849 0 6.8244 0C3.06032 0 0.00222778 3.06164 0.00222778 6.82217C0.00222778 10.5827 3.06387 13.6443 6.8244 13.6443C8.53437 13.6443 10.0989 13.0129 11.298 11.9698L15.1863 15.8581C15.2785 15.9503 15.4027 16 15.5233 16C15.6439 16 15.7681 15.9539 15.8603 15.8581C16.0448 15.6736 16.0448 15.3685 15.8603 15.184ZM0.956551 6.82217C0.956551 3.5867 3.58892 0.957871 6.82085 0.957871C10.0563 0.957871 12.6851 3.59024 12.6851 6.82217C12.6851 10.0541 10.0563 12.69 6.82085 12.69C3.58892 12.69 0.956551 10.0576 0.956551 6.82217Z" fill="#999999"/>
</svg>
