<svg width="138" height="20" viewBox="0 0 138 20" fill="none" xmlns="http://www.w3.org/2000/svg">
<path d="M9.0136 0.324913C13.3916 0.324913 16.3348 3.0686 16.3348 7.36462C16.3348 11.6246 13.2077 14.3682 8.6089 14.3682H5.81285V19.639H0V0.324913H9.0136Z" fill="#1D5EB2"/>
<path d="M31.8971 19.6751H18.3583V0.324913H24.1344V15.1264H31.8603V19.6751H31.8971Z" fill="#1D5EB2"/>
<path d="M46.0613 15.8123H40.0645L39.0344 19.6751H33.1112L39.5495 0.361008H46.7971L53.2354 19.6751H47.0914L46.0613 15.8123ZM41.0946 11.805H44.9944L43.0813 4.80144H42.9709L41.0946 11.805Z" fill="#1D5EB2"/>
<path d="M57.7974 19.6751V13.5379L51.0648 0.324913H57.2455L60.7038 8.15885H60.8142L64.2725 0.324913H70.306L63.5734 13.5379V19.6751H57.7974Z" fill="#1D5EB2"/>
<path d="M81.0856 0.324913C85.4636 0.324913 88.4068 3.0686 88.4068 7.36462C88.4068 11.6246 85.2797 14.3682 80.6809 14.3682H77.8848V19.639H72.1088V0.324913H81.0856Z" fill="#1D5EB2"/>
<path d="M90.4671 19.6751V0.324913H96.2431V19.639H90.4671V19.6751Z" fill="#1D5EB2"/>
<path d="M98.4873 10C98.4873 3.61011 102.24 0 108.274 0C113.461 0 117.397 3.3213 117.434 8.12274H111.879C111.732 5.92058 110.297 4.47653 108.274 4.47653C105.882 4.47653 104.411 6.5343 104.411 10C104.411 13.5018 105.882 15.5596 108.31 15.5596C110.297 15.5596 111.769 14.1155 111.916 11.8773H117.471C117.434 16.7148 113.608 20 108.31 20C102.24 20 98.4873 16.3538 98.4873 10Z" fill="#1D5EB2"/>
<path d="M119.642 19.6751V0.324913H125.418V8.51986H125.528L131.635 0.324913H137.706L131.231 8.91697L138 19.6751H131.267L126.963 12.5632L125.418 14.5848V19.639H119.642V19.6751Z" fill="#1D5EB2"/>
<path d="M8.241 5.84838C9.05039 5.84838 9.71261 6.4982 9.71261 7.29242C9.71261 8.08665 9.05039 8.73646 8.241 8.73646C7.43162 8.73646 6.7694 8.08665 6.7694 7.29242C6.7694 6.4982 7.43162 5.84838 8.241 5.84838ZM8.241 5.12636C7.02693 5.12636 6.03359 6.10109 6.03359 7.29242C6.03359 8.48376 7.02693 9.45849 8.241 9.45849C9.45508 9.45849 10.4484 8.48376 10.4484 7.29242C10.4484 6.10109 9.45508 5.12636 8.241 5.12636Z" fill="#FFDD21"/>
<path d="M82.9251 5.59567L82.4836 5.12636L80.7177 6.82311L78.9885 5.12636L78.5103 5.59567L80.2762 7.29242L78.5103 8.98917L78.9885 9.45849L80.7177 7.76174L82.4836 9.45849L82.9251 8.98917L81.196 7.29242L82.9251 5.59567Z" fill="#FFDD21"/>
</svg>
